<svg width="126" height="32" viewBox="0 0 126 32" fill="none" xmlns="http://www.w3.org/2000/svg">
<path d="M26.1538 8.3999V22.7999H40L26.1538 8.3999Z" fill="#F9B231"/>
<path d="M40 6V20.4H26.1538L40 6Z" fill="#F39100"/>
<path d="M40 15.6001V30.0001H26.1538L40 15.6001Z" fill="#F9B231"/>
<path d="M11.5385 2H0V30H11.5385V2Z" fill="#34A9E1"/>
<path d="M20.7693 11.2617L29.147 2H40.0001L20.7693 22.8V11.2617Z" fill="#34A9E1"/>
<path d="M20.7692 11.2617L11.6698 2H0L20.7692 22.8V11.2617Z" fill="#0190C9"/>
<path d="M47 14.1308V12.8455H50.4653L50.6634 14.5262C50.9604 13.933 51.3564 13.5375 51.8515 13.2409C52.3465 12.9443 52.8416 12.7466 53.4356 12.7466C53.6337 12.7466 53.7327 12.7466 53.9307 12.7466C54.1287 12.7466 54.2277 12.7466 54.3267 12.8455L54.0297 14.6251L52.8416 14.5262C52.3465 14.5262 51.8515 14.6251 51.4554 14.9217C51.0594 15.2183 50.7624 15.5149 50.5644 16.0093V22.4358L52.2475 22.7325V24.0178H47V22.7325L48.6832 22.4358V14.5262L47 14.1308Z" fill="#323232"/>
<path d="M63.6336 22.3345C63.2376 22.9278 62.8415 23.4221 62.2475 23.7187C61.6534 24.0153 61.0594 24.2131 60.3663 24.2131C59.1782 24.2131 58.1881 23.8176 57.495 23.0266C56.8019 22.2357 56.5049 21.0492 56.5049 19.3684V14.4249L55.2178 14.1283V12.843H56.5049H58.4851V19.4673C58.4851 20.6538 58.6831 21.4447 58.9801 21.9391C59.3762 22.4334 59.8712 22.6312 60.6633 22.6312C61.3564 22.6312 61.9504 22.5323 62.4455 22.2357C62.9405 21.9391 63.2376 21.5436 63.5346 20.9504V14.5238L62.0495 14.2272V12.9419H63.5346H65.5148V22.4334L66.8019 22.73V24.0153H63.7326L63.6336 22.3345Z" fill="#323232"/>
<path d="M77 16.4055H75.5149L75.2178 15.1202C75.0198 14.9224 74.6238 14.7247 74.3268 14.527C73.9307 14.4281 73.5347 14.3292 73.0396 14.3292C72.3466 14.3292 71.7525 14.527 71.4555 14.8236C71.0594 15.1202 70.9604 15.5157 70.9604 16.01C70.9604 16.4055 71.1584 16.801 71.4555 16.9987C71.7525 17.1965 72.3466 17.4931 73.3367 17.6908C74.7228 17.9874 75.8119 18.3829 76.505 18.8772C77.198 19.3716 77.4951 20.0637 77.4951 20.9535C77.4951 21.9422 77.099 22.7332 76.307 23.3264C75.5149 23.9196 74.4258 24.2162 73.1386 24.2162C72.2476 24.2162 71.5545 24.1174 70.8614 23.9196C70.1683 23.7219 69.5743 23.4253 69.0792 23.0298V20.4592H70.5644L70.9604 21.9422C71.1584 22.14 71.5545 22.3377 71.9505 22.4366C72.3466 22.5354 72.7426 22.5354 73.1386 22.5354C73.8317 22.5354 74.4258 22.4366 74.8218 22.14C75.2178 21.8433 75.4159 21.4479 75.4159 20.9535C75.4159 20.558 75.2178 20.1626 74.9208 19.8659C74.6238 19.5693 73.9307 19.3716 73.0396 19.075C71.6535 18.7784 70.6634 18.3829 69.9703 17.8885C69.2773 17.3942 68.9802 16.7021 68.9802 15.8123C68.9802 14.9224 69.3763 14.1315 70.1683 13.5383C70.9604 12.945 71.9505 12.5496 73.1386 12.5496C74.0297 12.5496 74.7228 12.6484 75.4159 12.8462C76.1089 13.0439 76.604 13.3405 77.099 13.736L77 16.4055Z" fill="#323232"/>
<path d="M86.5049 24.0185C86.4059 23.7219 86.4059 23.4253 86.4059 23.2275C86.4059 23.0298 86.3069 22.7332 86.3069 22.5354C85.9109 23.0298 85.4158 23.4253 84.8218 23.8207C84.2277 24.2162 83.6336 24.3151 82.9406 24.3151C81.7525 24.3151 80.8614 24.0185 80.2673 23.4253C79.6733 22.832 79.3762 22.0411 79.3762 21.0524C79.3762 19.9648 79.7723 19.1739 80.6634 18.5806C81.5544 17.9874 82.6436 17.6908 84.1287 17.6908H86.2079V16.4055C86.2079 15.7134 86.0099 15.2191 85.6138 14.8236C85.2178 14.4281 84.6237 14.2304 83.9307 14.2304C83.4356 14.2304 82.9406 14.3292 82.5445 14.4281C82.1485 14.527 81.8515 14.7247 81.6535 14.9224L81.4554 16.1089H79.8713V13.9337C80.3663 13.5383 80.9604 13.2417 81.7525 12.945C82.5445 12.6484 83.2376 12.5496 84.1287 12.5496C85.4158 12.5496 86.4059 12.8462 87.198 13.5383C87.9901 14.2304 88.3861 15.1202 88.3861 16.3066V21.6456C88.3861 21.7445 88.3861 21.9422 88.3861 22.0411C88.3861 22.14 88.3861 22.3377 88.3861 22.4366L89.1782 22.5354V23.8207H86.5049V24.0185ZM83.2376 22.5354C83.9307 22.5354 84.5247 22.3377 85.1188 22.0411C85.7129 21.7445 86.1089 21.349 86.3069 20.8546V19.075H84.1287C83.3366 19.075 82.6436 19.2727 82.1485 19.6682C81.6535 20.0637 81.4554 20.558 81.4554 21.0524C81.4554 21.5467 81.6535 21.9422 81.9505 22.14C82.1485 22.3377 82.6435 22.5354 83.2376 22.5354Z" fill="#323232"/>
<path d="M90.5643 9.28531V8H94.2277V17.2938H95.5148L97.8911 14.3277L96.901 14.2288V12.9435H101.554V14.2288L100.168 14.5254L97.198 17.9859L100.762 22.5339L102.049 22.8305V24.1158H97.396V22.8305L98.3861 22.7316L95.4158 19.0734H94.1287V22.435L95.8119 22.7316V24.0169H90.4653V22.7316L92.1485 22.435V9.58192L90.5643 9.28531Z" fill="#323232"/>
<path d="M103.634 18.2818C103.634 16.601 104.03 15.3157 104.921 14.2282C105.812 13.1406 107 12.6462 108.584 12.6462C110.069 12.6462 111.356 13.1406 112.248 14.2282C113.139 15.3157 113.634 16.601 113.634 18.2818V18.4796C113.634 20.1604 113.139 21.4457 112.347 22.5332C111.455 23.6208 110.267 24.1152 108.683 24.1152C107.099 24.1152 105.911 23.6208 105.02 22.5332C104.129 21.4457 103.733 20.1604 103.733 18.4796V18.2818H103.634ZM105.614 18.5784C105.614 19.7649 105.911 20.7536 106.406 21.4457C106.901 22.2366 107.594 22.6321 108.584 22.6321C109.574 22.6321 110.267 22.2366 110.762 21.4457C111.257 20.6547 111.554 19.666 111.554 18.5784V18.3807C111.554 17.1943 111.257 16.2056 110.762 15.5135C110.267 14.7225 109.574 14.327 108.584 14.327C107.594 14.327 106.901 14.7225 106.406 15.5135C105.911 16.3044 105.713 17.2931 105.713 18.3807V18.5784H105.614Z" fill="#323232"/>
<path d="M119.079 14.1283L117.792 14.3261L120.069 20.6537L120.267 21.4447H120.366L120.564 20.6537L122.743 14.3261L121.356 14.1283V12.843H125.614V14.1283L124.723 14.3261L120.96 24.0153H119.475L115.713 14.3261L114.822 14.1283V12.843H119.079V14.1283V14.1283Z" fill="#323232"/>
</svg>
